<svg height="512pt" viewBox="0 0 512 512" width="512pt" xmlns="http://www.w3.org/2000/svg"><path d="m482 164h-96v-36c0-16.542969-13.457031-30-30-30h-60.109375c-5.519531 0-10 4.476562-10 10s4.480469 10 10 10h60.109375c5.515625 0 10 4.484375 10 10v304c0 5.515625-4.484375 10-10 10h-200c-5.515625 0-10-4.484375-10-10v-304c0-5.515625 4.484375-10 10-10h59.890625c5.523437 0 10-4.476562 10-10s-4.476563-10-10-10h-59.890625c-16.542969 0-30 13.457031-30 30v36h-96c-16.542969 0-30 13.457031-30 30v288c0 16.542969 13.457031 30 30 30h184c16.542969 0 30-13.457031 30-30v-20h24v20c0 16.542969 13.457031 30 30 30h184c16.542969 0 30-13.457031 30-30v-288c0-16.542969-13.457031-30-30-30zm-96 87.992188c1.328125-.113282 2.664062-.191407 4-.191407 25.769531 0 46.734375 20.964844 46.734375 46.730469 0 25.773438-20.964844 46.734375-46.734375 46.734375-1.335938 0-2.671875-.078125-4-.191406zm-260 93.082031c-1.328125.113281-2.660156.191406-4 .191406-25.769531 0-46.734375-20.964844-46.734375-46.730469 0-25.769531 20.964844-46.734375 46.734375-46.734375 1.335938 0 2.671875.078125 4 .191407zm98 136.925781c0 5.515625-4.484375 10-10 10h-184c-5.515625 0-10-4.484375-10-10v-288c0-5.515625 4.484375-10 10-10h96v47.921875c-1.332031-.078125-2.664062-.121094-4-.121094-36.796875 0-66.734375 29.933594-66.734375 66.730469s29.9375 66.734375 66.734375 66.734375c1.335938 0 2.667969-.039063 4-.121094v28.855469h-62c-5.523438 0-10 4.476562-10 10s4.476562 10 10 10h62v18c0 3.507812.609375 6.871094 1.71875 10h-42.863281c-5.523438 0-10 4.476562-10 10s4.476562 10 10 10h139.144531zm268 0c0 5.515625-4.484375 10-10 10h-184c-5.515625 0-10-4.484375-10-10v-20h139.144531c5.523438 0 10-4.476562 10-10s-4.476562-10-10-10h-42.863281c1.109375-3.128906 1.71875-6.492188 1.71875-10v-18h62c5.523438 0 10-4.476562 10-10s-4.476562-10-10-10h-62v-28.855469c1.332031.082031 2.664062.125 4 .125 36.796875 0 66.734375-29.9375 66.734375-66.734375s-29.9375-66.734375-66.734375-66.734375c-1.335938 0-2.667969.042969-4 .121094v-47.921875h96c5.515625 0 10 4.484375 10 10zm0 0"/><path d="m324 350c0-5.523438-4.476562-10-10-10h-116c-5.523438 0-10 4.476562-10 10s4.476562 10 10 10h116c5.523438 0 10-4.476562 10-10zm0 0"/><path d="m218.855469 388c-5.523438 0-10 4.476562-10 10s4.476562 10 10 10h74.292969c5.519531 0 10-4.476562 10-10s-4.480469-10-10-10zm0 0"/><path d="m256 152c-45.214844 0-82 36.785156-82 82 0 24.085938 10.441406 45.777344 27.03125 60.792969.441406.46875.933594.890625 1.460938 1.269531 14.375 12.410156 33.074218 19.941406 53.507812 19.941406s39.125-7.53125 53.5-19.9375c.535156-.378906 1.027344-.804687 1.472656-1.277344 16.589844-15.015624 27.027344-36.703124 27.027344-60.789062 0-45.214844-36.785156-82-82-82zm-35.894531 132.503906c6.328125-13.832031 20.296875-23.050781 35.894531-23.050781s29.566406 9.21875 35.894531 23.050781c-10.136719 7.226563-22.523437 11.496094-35.894531 11.496094s-25.757812-4.269531-35.894531-11.496094zm23.3125-55.628906v-5.644531c0-6.941407 5.644531-12.582031 12.582031-12.582031s12.582031 5.644531 12.582031 12.582031v5.644531c0 6.9375-5.644531 12.578125-12.582031 12.578125s-12.582031-5.640625-12.582031-12.578125zm63.207031 40.851562c-5.84375-9.464843-14.230469-17.0625-24.085938-21.992187 3.800782-5.328125 6.042969-11.835937 6.042969-18.863281v-5.644532c0-17.964843-14.617187-32.578124-32.582031-32.578124s-32.582031 14.613281-32.582031 32.578124v5.644532c0 7.027344 2.246093 13.535156 6.042969 18.863281-9.851563 4.929687-18.238282 12.527344-24.085938 21.992187-7.152344-10.109374-11.375-22.429687-11.375-35.726562 0-34.1875 27.8125-62 62-62s62 27.8125 62 62c0 13.296875-4.222656 25.617188-11.375 35.726562zm0 0"/><path d="m255.894531 49.519531c5.523438 0 10-4.480469 10-10v-29.519531c0-5.523438-4.476562-10-10-10-5.523437 0-10 4.476562-10 10v29.519531c0 5.519531 4.476563 10 10 10zm0 0"/><path d="m182.128906 71.070312c1.953125 1.953126 4.511719 2.929688 7.070313 2.929688 2.558593 0 5.121093-.976562 7.070312-2.929688 3.90625-3.90625 3.90625-10.234374 0-14.140624l-17.320312-17.324219c-3.90625-3.902344-10.238281-3.902344-14.144531 0-3.90625 3.90625-3.90625 10.238281 0 14.144531zm0 0"/><path d="m322.800781 74c2.558594 0 5.117188-.976562 7.070313-2.929688l17.324218-17.320312c3.902344-3.90625 3.902344-10.238281 0-14.144531-3.90625-3.902344-10.234374-3.902344-14.144531 0l-17.324219 17.324219c-3.902343 3.902343-3.902343 10.234374 0 14.140624 1.957032 1.953126 4.511719 2.929688 7.074219 2.929688zm0 0"/><path d="m256 98c-2.628906 0-5.210938 1.070312-7.070312 2.929688-1.859376 1.859374-2.929688 4.441406-2.929688 7.070312s1.070312 5.210938 2.929688 7.070312c1.859374 1.859376 4.441406 2.929688 7.070312 2.929688s5.210938-1.070312 7.070312-2.929688c1.859376-1.859374 2.929688-4.441406 2.929688-7.070312s-1.070312-5.210938-2.929688-7.070312c-1.859374-1.859376-4.441406-2.929688-7.070312-2.929688zm0 0"/></svg>